<svg viewBox="0 0 135 135" fill="none" xmlns="http://www.w3.org/2000/svg">
    <path d="M67.5 0L76.4965 10.698L88.3586 3.30369L93.609 16.2582L107.176 12.8914L108.166 26.8343L122.109 27.8245L118.742 41.391L131.696 46.6414L124.302 58.5035L135 67.5L124.302 76.4965L131.696 88.3586L118.742 93.609L122.109 107.176L108.166 108.166L107.176 122.109L93.609 118.742L88.3586 131.696L76.4965 124.302L67.5 135L58.5035 124.302L46.6414 131.696L41.391 118.742L27.8245 122.109L26.8343 108.166L12.8914 107.176L16.2582 93.609L3.30369 88.3586L10.698 76.4965L0 67.5L10.698 58.5035L3.30369 46.6414L16.2582 41.391L12.8914 27.8245L26.8343 26.8343L27.8245 12.8914L41.391 16.2582L46.6414 3.30369L58.5035 10.698L67.5 0Z" fill="#101010"/>
</svg>