<?xml version="1.0" encoding="UTF-8"?><svg id="Laag_1" xmlns="http://www.w3.org/2000/svg" viewBox="0 0 152.35 110.26"><defs><style>.cls-1{fill:#fdc300;}.cls-2{fill:gray;}</style></defs><g><path d="M12.43,66.43h5.33v8.25h-5.33v20.4H3.84v-20.4H0v-8.25H3.84c0-8.02,4.41-12.84,13.92-12.26v8.25c-3.21-.29-5.33,.69-5.33,4.01Z"/><path d="M38.11,65.86v9.74c-3.55-.57-8.6,.86-8.6,6.53v12.95h-8.6v-28.65h8.6v5.1c1.15-3.84,4.98-5.67,8.6-5.67Z"/><path d="M70.66,66.43v28.65h-8.6v-2.69c-1.89,2.18-4.7,3.5-8.54,3.5-7.51,0-13.7-6.59-13.7-15.13s6.19-15.13,13.7-15.13c3.84,0,6.65,1.32,8.54,3.5v-2.69h8.6Zm-8.6,14.33c0-4.3-2.87-6.99-6.82-6.99s-6.82,2.69-6.82,6.99,2.87,6.99,6.82,6.99,6.82-2.69,6.82-6.99Z"/><path d="M104.47,77.49v17.59h-8.6v-16.33c0-3.55-2.23-5.21-4.98-5.21-3.15,0-5.33,1.83-5.33,5.9v15.64h-8.6v-28.65h8.6v2.69c1.55-2.12,4.41-3.5,8.19-3.5,5.79,0,10.71,4.13,10.71,11.86Z"/><path d="M128.14,95.08l-9.17-12.66v12.66h-8.6V54.97h8.6v24.01l8.6-12.55h10.03l-10.43,14.33,10.71,14.32h-9.74Z"/></g><path class="cls-1" d="M140.46,90.44c0-2.98,2.46-5.44,5.44-5.44s5.44,2.46,5.44,5.44-2.46,5.44-5.44,5.44-5.44-2.46-5.44-5.44Zm.29-24.01v-11.46h10.31v11.46l-1.72,14.33h-6.88l-1.72-14.33Z"/><g><path d="M46.51,.8l-9.17,28.65h-8.02l-4.58-15.3-4.58,15.3H12.13L2.96,.8H12.13l4.13,15.36L20.72,.8h8.02l4.47,15.36L37.34,.8h9.17Z"/><path d="M63.41,22.58c2.35,0,4.35-.92,5.5-2.18l6.88,3.95c-2.81,3.9-7.05,5.9-12.49,5.9-9.8,0-15.87-6.59-15.87-15.13S53.62,0,62.67,0c8.37,0,14.55,6.47,14.55,15.13,0,1.2-.12,2.35-.34,3.44h-20.34c1.09,2.98,3.72,4.01,6.88,4.01Zm5.27-10.43c-.92-3.32-3.5-4.53-6.07-4.53-3.27,0-5.44,1.6-6.25,4.53h12.32Z"/></g><g><path class="cls-1" d="M50.71,33.5v28.65h-8.6v-2.69c-1.89,2.18-4.7,3.5-8.54,3.5-7.51,0-13.7-6.59-13.7-15.13s6.19-15.13,13.7-15.13c3.84,0,6.65,1.32,8.54,3.5v-2.69h8.6Zm-8.6,14.33c0-4.3-2.87-6.99-6.82-6.99s-6.82,2.69-6.82,6.99,2.87,6.99,6.82,6.99,6.82-2.69,6.82-6.99Z"/><path class="cls-1" d="M74.21,32.93v9.74c-3.55-.57-8.6,.86-8.6,6.53v12.95h-8.6v-28.65h8.6v5.1c1.15-3.84,4.98-5.67,8.6-5.67Z"/><path class="cls-1" d="M91.92,55.28c2.35,0,4.35-.92,5.5-2.18l6.88,3.95c-2.81,3.9-7.05,5.9-12.49,5.9-9.8,0-15.87-6.59-15.87-15.13s6.19-15.13,15.24-15.13c8.37,0,14.55,6.47,14.55,15.13,0,1.2-.12,2.35-.34,3.44h-20.34c1.09,2.98,3.72,4.01,6.88,4.01Zm5.27-10.43c-.92-3.32-3.5-4.53-6.07-4.53-3.27,0-5.44,1.6-6.25,4.53h12.32Z"/></g><g><path class="cls-2" d="M3.09,105.77c0-1.44,1.14-2.55,2.57-2.55s2.56,1.1,2.56,2.55-1.14,2.55-2.56,2.55-2.57-1.1-2.57-2.55Zm4.62,0c0-1.16-.9-2.08-2.06-2.08s-2.07,.92-2.07,2.08,.91,2.08,2.07,2.08,2.06-.92,2.06-2.08Z"/><path class="cls-2" d="M14.3,105.77c0,1.44-1.13,2.55-2.53,2.55-.95,0-1.7-.49-2.1-1.24v3.08h-.49v-6.83h.49v1.13c.4-.75,1.15-1.24,2.1-1.24,1.4,0,2.53,1.1,2.53,2.55Zm-.49,0c0-1.16-.91-2.08-2.07-2.08s-2.07,.92-2.07,2.08,.91,2.08,2.07,2.08,2.07-.92,2.07-2.08Z"/><path class="cls-2" d="M19.89,105.79c0,.08,0,.16,0,.23h-4.42c.12,1.1,.96,1.82,2.07,1.82,.8,0,1.41-.37,1.69-.89l.43,.25c-.4,.66-1.16,1.1-2.13,1.1-1.5,0-2.57-1.07-2.57-2.55s1.03-2.55,2.53-2.55,2.41,1.23,2.41,2.57Zm-4.43-.24h3.92c-.11-1.19-.95-1.85-1.9-1.85-1.11,0-1.92,.77-2.02,1.85Z"/><path class="cls-2" d="M24.97,105.17v3.03h-.5v-3.03c0-.9-.52-1.48-1.43-1.48s-1.71,.62-1.71,1.94v2.58h-.49v-4.88h.49v.93c.37-.72,1-1.03,1.75-1.03,1.16,0,1.89,.77,1.89,1.95Z"/><path class="cls-2" d="M31.85,106.93c0,.8-.7,1.39-1.75,1.39-.98,0-1.62-.46-1.85-1.08l.42-.24c.18,.53,.7,.86,1.43,.86,.68,0,1.26-.3,1.26-.92,0-1.33-2.96-.57-2.96-2.32,0-.77,.66-1.39,1.66-1.39,.79,0,1.4,.38,1.66,.98l-.41,.23c-.2-.51-.71-.74-1.25-.74-.63,0-1.17,.33-1.17,.92,0,1.31,2.96,.54,2.96,2.32Z"/><path class="cls-2" d="M32.35,105.77c0-1.44,1.14-2.55,2.57-2.55s2.56,1.1,2.56,2.55-1.14,2.55-2.56,2.55-2.57-1.1-2.57-2.55Zm4.62,0c0-1.16-.9-2.08-2.06-2.08s-2.07,.92-2.07,2.08,.91,2.08,2.07,2.08,2.06-.92,2.06-2.08Z"/><path class="cls-2" d="M42.45,103.33v4.88h-.49v-.93c-.37,.72-.99,1.03-1.75,1.03-1.16,0-1.89-.77-1.89-1.95v-3.03h.5v3.03c0,.9,.52,1.48,1.43,1.48s1.71-.62,1.71-1.94v-2.58h.49Z"/><path class="cls-2" d="M45.88,103.26v.47c-.84,0-1.63,.52-1.63,1.77v2.71h-.49v-4.88h.49v.96c.33-.77,.97-1.02,1.63-1.02Z"/><path class="cls-2" d="M46.06,105.77c0-1.44,1.09-2.55,2.57-2.55,.96,0,1.78,.49,2.13,1.25l-.4,.23c-.28-.61-.95-1.01-1.73-1.01-1.18,0-2.07,.92-2.07,2.08s.89,2.08,2.07,2.08c.79,0,1.43-.41,1.76-1.01l.41,.24c-.39,.75-1.21,1.24-2.17,1.24-1.47,0-2.57-1.1-2.57-2.55Z"/><path class="cls-2" d="M56.27,105.79c0,.08,0,.16,0,.23h-4.42c.12,1.1,.96,1.82,2.07,1.82,.8,0,1.41-.37,1.69-.89l.43,.25c-.4,.66-1.16,1.1-2.13,1.1-1.5,0-2.57-1.07-2.57-2.55s1.03-2.55,2.53-2.55,2.41,1.23,2.41,2.57Zm-4.43-.24h3.92c-.11-1.19-.95-1.85-1.9-1.85-1.11,0-1.92,.77-2.02,1.85Z"/><path class="cls-2" d="M59.49,101.76c0-.2,.18-.38,.39-.38s.39,.18,.39,.38-.18,.39-.39,.39-.39-.18-.39-.39Zm.15,1.57h.49v4.88h-.49v-4.88Z"/><path class="cls-2" d="M65.56,105.17v3.03h-.5v-3.03c0-.9-.52-1.48-1.43-1.48s-1.71,.62-1.71,1.94v2.58h-.49v-4.88h.49v.93c.37-.72,1-1.03,1.75-1.03,1.16,0,1.89,.77,1.89,1.95Z"/><path class="cls-2" d="M67.79,103.81v3.17c0,.86,.46,.88,1.45,.79v.44c-1.28,.19-1.95-.12-1.95-1.23v-3.17h-1.07v-.48h1.07v-1.22l.5-.15v1.37h1.45v.48h-1.45Z"/><path class="cls-2" d="M74.54,105.79c0,.08,0,.16,0,.23h-4.42c.12,1.1,.96,1.82,2.07,1.82,.8,0,1.41-.37,1.69-.89l.43,.25c-.4,.66-1.16,1.1-2.13,1.1-1.5,0-2.57-1.07-2.57-2.55s1.03-2.55,2.53-2.55,2.41,1.23,2.41,2.57Zm-4.43-.24h3.92c-.11-1.19-.95-1.85-1.9-1.85-1.11,0-1.92,.77-2.02,1.85Z"/><path class="cls-2" d="M80.3,103.33v4.64c0,1.46-1.08,2.29-2.43,2.29-1.14,0-1.95-.46-2.3-1.17l.43-.24c.25,.52,.8,.95,1.87,.95,1.22,0,1.94-.71,1.94-1.82v-.9c-.4,.75-1.15,1.24-2.1,1.24-1.39,0-2.53-1.1-2.53-2.55s1.13-2.55,2.53-2.55c.95,0,1.7,.49,2.1,1.24v-1.13h.49Zm-.49,2.44c0-1.16-.91-2.08-2.07-2.08s-2.07,.92-2.07,2.08,.91,2.08,2.07,2.08,2.07-.92,2.07-2.08Z"/><path class="cls-2" d="M83.73,103.26v.47c-.84,0-1.63,.52-1.63,1.77v2.71h-.49v-4.88h.49v.96c.33-.77,.97-1.02,1.63-1.02Z"/><path class="cls-2" d="M89.03,103.33v4.88h-.5v-1.1c-.41,.73-1.16,1.21-2.1,1.21-1.39,0-2.53-1.1-2.53-2.55s1.14-2.55,2.53-2.55c.94,0,1.69,.48,2.1,1.21v-1.1h.5Zm-.5,2.44c0-1.16-.9-2.08-2.06-2.08s-2.07,.92-2.07,2.08,.91,2.08,2.07,2.08,2.06-.92,2.06-2.08Z"/><path class="cls-2" d="M91.38,103.81v3.17c0,.86,.46,.88,1.45,.79v.44c-1.28,.19-1.95-.12-1.95-1.23v-3.17h-1.07v-.48h1.07v-1.22l.5-.15v1.37h1.45v.48h-1.45Z"/><path class="cls-2" d="M93.66,101.76c0-.2,.18-.38,.39-.38s.39,.18,.39,.38-.18,.39-.39,.39-.39-.18-.39-.39Zm.15,1.57h.49v4.88h-.49v-4.88Z"/><path class="cls-2" d="M95.27,105.77c0-1.44,1.14-2.55,2.57-2.55s2.56,1.1,2.56,2.55-1.14,2.55-2.56,2.55-2.57-1.1-2.57-2.55Zm4.62,0c0-1.16-.9-2.08-2.06-2.08s-2.07,.92-2.07,2.08,.91,2.08,2.07,2.08,2.06-.92,2.06-2.08Z"/><path class="cls-2" d="M105.5,105.17v3.03h-.5v-3.03c0-.9-.52-1.48-1.43-1.48s-1.71,.62-1.71,1.94v2.58h-.49v-4.88h.49v.93c.37-.72,1-1.03,1.75-1.03,1.16,0,1.89,.77,1.89,1.95Z"/><path class="cls-2" d="M112.38,106.93c0,.8-.7,1.39-1.75,1.39-.98,0-1.62-.46-1.85-1.08l.42-.24c.18,.53,.7,.86,1.43,.86,.68,0,1.26-.3,1.26-.92,0-1.33-2.96-.57-2.96-2.32,0-.77,.66-1.39,1.66-1.39,.79,0,1.4,.38,1.66,.98l-.41,.23c-.2-.51-.71-.74-1.25-.74-.63,0-1.17,.33-1.17,.92,0,1.31,2.96,.54,2.96,2.32Z"/><path class="cls-2" d="M118.48,105.77c0,1.44-1.13,2.55-2.53,2.55-.95,0-1.7-.49-2.1-1.24v3.08h-.49v-6.83h.49v1.13c.4-.75,1.15-1.24,2.1-1.24,1.4,0,2.53,1.1,2.53,2.55Zm-.49,0c0-1.16-.91-2.08-2.07-2.08s-2.07,.92-2.07,2.08,.91,2.08,2.07,2.08,2.07-.92,2.07-2.08Z"/><path class="cls-2" d="M124.07,105.79c0,.08,0,.16,0,.23h-4.42c.12,1.1,.96,1.82,2.07,1.82,.8,0,1.41-.37,1.69-.89l.43,.25c-.4,.66-1.16,1.1-2.13,1.1-1.5,0-2.57-1.07-2.57-2.55s1.03-2.55,2.53-2.55,2.41,1.23,2.41,2.57Zm-4.43-.24h3.92c-.11-1.19-.95-1.85-1.9-1.85-1.11,0-1.92,.77-2.02,1.85Z"/><path class="cls-2" d="M124.69,105.77c0-1.44,1.09-2.55,2.57-2.55,.96,0,1.78,.49,2.13,1.25l-.4,.23c-.28-.61-.95-1.01-1.73-1.01-1.18,0-2.07,.92-2.07,2.08s.89,2.08,2.07,2.08c.79,0,1.43-.41,1.76-1.01l.41,.24c-.39,.75-1.21,1.24-2.17,1.24-1.47,0-2.57-1.1-2.57-2.55Z"/><path class="cls-2" d="M130.15,101.76c0-.2,.18-.38,.39-.38s.39,.18,.39,.38-.18,.39-.39,.39-.39-.18-.39-.39Zm.15,1.57h.49v4.88h-.49v-4.88Z"/><path class="cls-2" d="M136.88,103.33v4.88h-.5v-1.1c-.41,.73-1.16,1.21-2.1,1.21-1.39,0-2.53-1.1-2.53-2.55s1.14-2.55,2.53-2.55c.94,0,1.69,.48,2.1,1.21v-1.1h.5Zm-.5,2.44c0-1.16-.9-2.08-2.06-2.08s-2.07,.92-2.07,2.08,.91,2.08,2.07,2.08,2.06-.92,2.06-2.08Z"/><path class="cls-2" d="M138.19,101.08h.49v7.12h-.49v-7.12Z"/><path class="cls-2" d="M139.84,101.76c0-.2,.18-.38,.39-.38s.39,.18,.39,.38-.18,.39-.39,.39-.39-.18-.39-.39Zm.15,1.57h.49v4.88h-.49v-4.88Z"/><path class="cls-2" d="M145.07,106.93c0,.8-.7,1.39-1.75,1.39-.98,0-1.62-.46-1.85-1.08l.42-.24c.18,.53,.7,.86,1.43,.86,.68,0,1.26-.3,1.26-.92,0-1.33-2.96-.57-2.96-2.32,0-.77,.66-1.39,1.66-1.39,.79,0,1.4,.38,1.66,.98l-.41,.23c-.2-.51-.71-.74-1.25-.74-.63,0-1.17,.33-1.17,.92,0,1.31,2.96,.54,2.96,2.32Z"/><path class="cls-2" d="M146.91,103.81v3.17c0,.86,.46,.88,1.45,.79v.44c-1.28,.19-1.95-.12-1.95-1.23v-3.17h-1.07v-.48h1.07v-1.22l.5-.15v1.37h1.45v.48h-1.45Z"/><path class="cls-2" d="M152.35,106.93c0,.8-.7,1.39-1.75,1.39-.98,0-1.62-.46-1.85-1.08l.42-.24c.18,.53,.7,.86,1.43,.86,.68,0,1.26-.3,1.26-.92,0-1.33-2.96-.57-2.96-2.32,0-.77,.66-1.39,1.66-1.39,.79,0,1.4,.38,1.66,.98l-.41,.23c-.2-.51-.71-.74-1.25-.74-.63,0-1.17,.33-1.17,.92,0,1.31,2.96,.54,2.96,2.32Z"/></g></svg>