<svg xmlns="http://www.w3.org/2000/svg" viewBox="0 0 236.45 65.49"><defs><style>.a{fill:#fff;}.b{fill:#fdc300;}</style></defs><path class="a" d="M13.06,12.93h5.6v8.66h-5.6V43H4V21.59H0V12.93H4C4,4.5,8.67-.55,18.66.05V8.71C15.29,8.41,13.06,9.44,13.06,12.93Z"/><path class="a" d="M40,12.32V22.56c-3.73-.61-9,.9-9,6.86V43H22V12.93h9v5.35C32.2,14.25,36.23,12.32,40,12.32Z"/><path class="a" d="M74.2,12.93V43h-9V40.19c-2,2.29-4.94,3.67-9,3.67-7.88,0-14.38-6.92-14.38-15.89s6.5-15.89,14.38-15.89c4,0,7,1.39,9,3.68V12.93Zm-9,15c0-4.51-3-7.34-7.16-7.34S50.85,23.46,50.85,28s3,7.34,7.17,7.34S65.18,32.49,65.18,28Z"/><path class="a" d="M109.71,24.54V43h-9V25.87c0-3.74-2.34-5.48-5.23-5.48-3.31,0-5.6,1.93-5.6,6.2V43h-9V12.93h9v2.83c1.63-2.23,4.64-3.68,8.61-3.68C104.54,12.08,109.71,16.42,109.71,24.54Z"/><path class="a" d="M134.57,43l-9.63-13.3V43h-9V.89h9V26.11l9-13.18H144.5l-11,15L144.8,43Z"/><path class="b" d="M147.51,38.14a5.72,5.72,0,1,1,5.72,5.72A5.75,5.75,0,0,1,147.51,38.14Zm.3-25.21V.89h10.83v12l-1.8,15h-7.22Z"/><path class="a" d="M167.41,7.3V8h4V9.35h-4V21.53H166V9.35h-2.32V8H166V7.3c0-3.32,1.86-5.24,5.4-5v1.3C168.68,3.41,167.41,4.68,167.41,7.3Z"/><path class="a" d="M179.37,7.84v1.3c-2.32,0-4.51,1.43-4.51,4.88v7.51h-1.35V8h1.35v2.64A4.54,4.54,0,0,1,179.37,7.84Z"/><path class="a" d="M194.57,8v13.5h-1.38V18.48a6.48,6.48,0,0,1-5.8,3.34,7,7,0,0,1,0-14.09,6.49,6.49,0,0,1,5.8,3.35V8Zm-1.38,6.75a5.71,5.71,0,1,0-11.42,0,5.71,5.71,0,1,0,11.42,0Z"/><path class="a" d="M218.05,13v8.56H216.7V13c0-2.57-1.48-3.94-3.59-3.94-2.26,0-4.05,1.51-4.05,5v7.54h-1.34V13c0-2.57-1.38-3.94-3.46-3.94s-4.18,1.51-4.18,5v7.54h-1.35V8h1.35v2.32a4.71,4.71,0,0,1,4.34-2.62,4.26,4.26,0,0,1,4.21,2.76,4.92,4.92,0,0,1,4.51-2.76C216,7.73,218.05,9.6,218.05,13Z"/><path class="a" d="M234.61,14.83c0,.22,0,.43,0,.65H222.35a5.5,5.5,0,0,0,5.72,5.05,5.13,5.13,0,0,0,4.67-2.46l1.19.7a6.64,6.64,0,0,1-5.88,3.05,6.82,6.82,0,0,1-7.1-7,6.81,6.81,0,0,1,7-7C232,7.73,234.61,11.13,234.61,14.83Zm-12.26-.67H233.2A5.23,5.23,0,0,0,227.94,9,5.44,5.44,0,0,0,222.35,14.16Z"/><path class="a" d="M182.87,28l-4.26,13.49h-1.49L173.37,30l-3.75,11.5h-1.48L163.87,28h1.43l3.59,11.74L172.67,28h1.4l3.78,11.74L181.44,28Z"/><path class="a" d="M184.42,34.79a7.09,7.09,0,1,1,7.1,7A7,7,0,0,1,184.42,34.79Zm12.79,0a5.71,5.71,0,1,0-5.69,5.74A5.65,5.65,0,0,0,197.21,34.79Z"/><path class="a" d="M207.69,27.85v1.29c-2.32,0-4.51,1.43-4.51,4.89v7.5h-1.35V28h1.35v2.64A4.54,4.54,0,0,1,207.69,27.85Z"/><path class="a" d="M218.92,41.53l-7.15-6.64v6.64h-1.35V22.64h1.35V34.16L218.6,28h1.89l-7.27,6.48,7.54,7Z"/><path class="a" d="M.26,58.11a4.15,4.15,0,0,1,4.21-4.18,4.18,4.18,0,1,1,0,8.35A4.14,4.14,0,0,1,.26,58.11Zm7.59,0A3.36,3.36,0,0,0,4.47,54.7a3.41,3.41,0,0,0,0,6.82A3.36,3.36,0,0,0,7.85,58.11Z"/><path class="a" d="M19.19,58.11a4.12,4.12,0,0,1-4.14,4.17,3.8,3.8,0,0,1-3.45-2v5.06h-.8V54.11h.8V56a3.8,3.8,0,0,1,3.45-2A4.13,4.13,0,0,1,19.19,58.11Zm-.8,0A3.4,3.4,0,1,0,15,61.52,3.37,3.37,0,0,0,18.39,58.11Z"/><path class="a" d="M28.9,58.14c0,.13,0,.26,0,.38H21.64a3.25,3.25,0,0,0,3.39,3,3.06,3.06,0,0,0,2.77-1.46l.7.42A3.92,3.92,0,0,1,25,62.28a4.18,4.18,0,1,1,3.89-4.14Zm-7.26-.4h6.43a3.11,3.11,0,0,0-3.12-3A3.22,3.22,0,0,0,21.64,57.74Z"/><path class="a" d="M37.77,57.13v5H37v-5A2.21,2.21,0,0,0,34.6,54.7c-1.57,0-2.8,1-2.8,3.18v4.23H31v-8h.8v1.52a3,3,0,0,1,2.86-1.7A3,3,0,0,1,37.77,57.13Z"/><path class="a" d="M50.15,60c0,1.31-1.15,2.27-2.87,2.27a3,3,0,0,1-3-1.77l.69-.4a2.29,2.29,0,0,0,2.35,1.41c1.12,0,2.07-.5,2.07-1.51,0-2.17-4.85-.93-4.85-3.81a2.44,2.44,0,0,1,2.72-2.27,2.81,2.81,0,0,1,2.72,1.6l-.67.38a2.09,2.09,0,0,0-2.05-1.21c-1,0-1.92.54-1.92,1.5C45.3,58.35,50.15,57.08,50.15,60Z"/><path class="a" d="M51.54,58.11a4.2,4.2,0,1,1,4.21,4.17A4.15,4.15,0,0,1,51.54,58.11Zm7.59,0a3.39,3.39,0,1,0-3.38,3.41A3.36,3.36,0,0,0,59.13,58.11Z"/><path class="a" d="M68.65,54.11v8h-.8V60.59A3,3,0,0,1,65,62.28a3,3,0,0,1-3.1-3.2v-5h.81v5A2.21,2.21,0,0,0,65,61.52c1.57,0,2.81-1,2.81-3.19V54.11Z"/><path class="a" d="M74.8,54v.77a2.59,2.59,0,0,0-2.67,2.9v4.45h-.8v-8h.8v1.56A2.71,2.71,0,0,1,74.8,54Z"/><path class="a" d="M75.65,58.11a4.1,4.1,0,0,1,4.21-4.18,3.75,3.75,0,0,1,3.49,2l-.66.38a3,3,0,0,0-2.83-1.66,3.41,3.41,0,0,0,0,6.82,3.2,3.2,0,0,0,2.88-1.67l.67.4a3.93,3.93,0,0,1-3.55,2A4.09,4.09,0,0,1,75.65,58.11Z"/><path class="a" d="M93,58.14c0,.13,0,.26,0,.38H85.68a3.27,3.27,0,0,0,3.4,3,3.06,3.06,0,0,0,2.77-1.46l.7.42a4,4,0,0,1-3.49,1.8A4.18,4.18,0,1,1,93,58.14Zm-7.27-.4h6.44a3.12,3.12,0,0,0-3.12-3A3.23,3.23,0,0,0,85.68,57.74Z"/><path class="a" d="M104.93,60c0,1.31-1.15,2.27-2.86,2.27a3,3,0,0,1-3-1.77l.68-.4a2.3,2.3,0,0,0,2.36,1.41c1.12,0,2.06-.5,2.06-1.51,0-2.17-4.85-.93-4.85-3.81A2.44,2.44,0,0,1,102,53.93a2.81,2.81,0,0,1,2.72,1.6l-.67.38a2.09,2.09,0,0,0-2-1.21c-1,0-1.92.54-1.92,1.5C100.08,58.35,104.93,57.08,104.93,60Z"/><path class="a" d="M113.43,54.11,110,62.85c-.61,1.53-1.79,2.57-3.17,2.46v-.75c1.07.09,1.89-.71,2.39-1.87l.17-.44-3.68-8.14h.87l3.23,7.12,2.78-7.12Z"/><path class="a" d="M120,60c0,1.31-1.16,2.27-2.87,2.27a3,3,0,0,1-3-1.77l.69-.4a2.29,2.29,0,0,0,2.35,1.41c1.12,0,2.07-.5,2.07-1.51,0-2.17-4.85-.93-4.85-3.81a2.44,2.44,0,0,1,2.72-2.27,2.82,2.82,0,0,1,2.72,1.6l-.67.38a2.09,2.09,0,0,0-2-1.21c-1,0-1.92.54-1.92,1.5C115.19,58.35,120,57.08,120,60Z"/><path class="a" d="M123.6,54.89v5.2c0,1.41.75,1.44,2.39,1.3v.72c-2.1.32-3.2-.19-3.2-2v-5.2H121v-.78h1.76v-2l.81-.25v2.25H126v.78Z"/><path class="a" d="M135.24,58.14c0,.13,0,.26,0,.38H128a3.26,3.26,0,0,0,3.39,3,3,3,0,0,0,2.77-1.46l.71.42a4,4,0,0,1-3.49,1.8,4.18,4.18,0,1,1,3.89-4.14Zm-7.27-.4h6.43a3.1,3.1,0,0,0-3.12-3A3.22,3.22,0,0,0,128,57.74Z"/><path class="a" d="M148.79,57v5.08H148V57a2.07,2.07,0,0,0-2.13-2.33c-1.34,0-2.4.89-2.4,2.94v4.47h-.8V57c0-1.52-.82-2.33-2-2.33s-2.48.89-2.48,2.94v4.47h-.8v-8h.8v1.37a2.8,2.8,0,0,1,2.58-1.55,2.52,2.52,0,0,1,2.49,1.63,2.92,2.92,0,0,1,2.68-1.63A2.8,2.8,0,0,1,148.79,57Z"/><path class="a" d="M155.54,51.53a.64.64,0,1,1,.64.64A.64.64,0,0,1,155.54,51.53Zm.24,2.58h.8v8h-.8Z"/><path class="a" d="M166,57.13v5h-.82v-5a2.21,2.21,0,0,0-2.35-2.43c-1.57,0-2.8,1-2.8,3.18v4.23h-.8v-8h.8v1.52a3,3,0,0,1,2.86-1.7A3,3,0,0,1,166,57.13Z"/><path class="a" d="M170.23,54.89v5.2c0,1.41.75,1.44,2.38,1.3v.72c-2.1.32-3.2-.19-3.2-2v-5.2h-1.76v-.78h1.76v-2l.82-.25v2.25h2.38v.78Z"/><path class="a" d="M181.86,58.14c0,.13,0,.26,0,.38h-7.25a3.27,3.27,0,0,0,3.4,3,3.06,3.06,0,0,0,2.77-1.46l.7.42a3.93,3.93,0,0,1-3.49,1.8,4.18,4.18,0,1,1,3.89-4.14Zm-7.27-.4H181a3.11,3.11,0,0,0-3.12-3A3.23,3.23,0,0,0,174.59,57.74Z"/><path class="a" d="M191.86,54.11v7.62a3.68,3.68,0,0,1-4,3.76,4,4,0,0,1-3.78-1.92l.7-.4a3.1,3.1,0,0,0,3.08,1.55,2.86,2.86,0,0,0,3.18-3V60.25a3.8,3.8,0,0,1-3.44,2,4.18,4.18,0,0,1,0-8.35,3.8,3.8,0,0,1,3.44,2V54.11Zm-.8,4a3.4,3.4,0,1,0-3.39,3.41A3.37,3.37,0,0,0,191.06,58.11Z"/><path class="a" d="M198,54v.77a2.59,2.59,0,0,0-2.67,2.9v4.45h-.8v-8h.8v1.56A2.69,2.69,0,0,1,198,54Z"/><path class="a" d="M207.27,54.11v8h-.82V60.3a3.84,3.84,0,0,1-3.44,2,4.18,4.18,0,0,1,0-8.35,3.84,3.84,0,0,1,3.44,2v-1.8Zm-.82,4a3.39,3.39,0,1,0-3.37,3.41A3.35,3.35,0,0,0,206.45,58.11Z"/><path class="a" d="M211.67,54.89v5.2c0,1.41.75,1.44,2.38,1.3v.72c-2.1.32-3.2-.19-3.2-2v-5.2h-1.76v-.78h1.76v-2l.82-.25v2.25h2.38v.78Z"/><path class="a" d="M216,51.53a.64.64,0,0,1,.64-.63.64.64,0,1,1,0,1.27A.64.64,0,0,1,216,51.53Zm.24,2.58h.8v8h-.8Z"/><path class="a" d="M219.14,58.11a4.2,4.2,0,1,1,4.21,4.17A4.15,4.15,0,0,1,219.14,58.11Zm7.58,0a3.39,3.39,0,1,0-3.37,3.41A3.35,3.35,0,0,0,226.72,58.11Z"/><path class="a" d="M236.45,57.13v5h-.81v-5a2.21,2.21,0,0,0-2.36-2.43c-1.57,0-2.8,1-2.8,3.18v4.23h-.8v-8h.8v1.52a3,3,0,0,1,2.87-1.7A3,3,0,0,1,236.45,57.13Z"/></svg>