<?xml version="1.0" encoding="utf-8"?>
<!-- Generator: Adobe Illustrator 23.0.3, SVG Export Plug-In . SVG Version: 6.00 Build 0)  -->
<svg version="1.1" id="Laag_1" xmlns="http://www.w3.org/2000/svg" xmlns:xlink="http://www.w3.org/1999/xlink" x="0px" y="0px"
	 viewBox="0 0 240.94 46.91" style="enable-background:new 0 0 240.94 46.91;" xml:space="preserve">
<style type="text/css">
	.st0{fill:#4376FC;}
</style>
<g>
	<g>
		<path class="st0" d="M20.59,4.69L4,14.27v19.16l16.59,9.58l16.59-9.58V14.27L20.59,4.69z M32.96,30.99l-12.37,7.14L8.23,30.99
			V16.71l12.37-7.14l12.37,7.14V30.99z"/>
		<polygon class="st0" points="20.55,19.03 24.44,21.27 28.96,18.66 20.55,13.8 11.85,18.83 11.85,28.87 20.55,33.9 28.96,29.04 
			24.44,26.43 20.55,28.68 16.38,26.26 16.38,21.44 		"/>
	</g>
	<g>
		<path class="st0" d="M42.6,16.64c0-0.39,0.07-0.75,0.22-1.1c0.15-0.35,0.35-0.65,0.61-0.9c0.26-0.25,0.56-0.46,0.91-0.61
			c0.35-0.15,0.71-0.23,1.1-0.23h10.75c0.39,0,0.75,0.08,1.1,0.23c0.35,0.15,0.65,0.35,0.91,0.61c0.26,0.25,0.46,0.55,0.61,0.9
			c0.15,0.35,0.22,0.71,0.22,1.1v2.56h-2.83v-2.56H45.43v14.15h10.75v-2.54h2.83v2.54c0,0.39-0.07,0.75-0.22,1.1
			c-0.15,0.35-0.35,0.65-0.61,0.91s-0.56,0.46-0.91,0.61s-0.71,0.22-1.1,0.22H45.43c-0.39,0-0.75-0.07-1.1-0.22
			s-0.65-0.35-0.91-0.61c-0.26-0.26-0.46-0.56-0.61-0.91c-0.15-0.35-0.22-0.71-0.22-1.1V16.64z"/>
		<path class="st0" d="M80.54,30.79c0,0.39-0.07,0.75-0.22,1.1c-0.15,0.35-0.35,0.65-0.61,0.91c-0.26,0.26-0.56,0.46-0.91,0.61
			c-0.35,0.15-0.71,0.22-1.1,0.22H66.39c-0.39,0-0.75-0.07-1.1-0.22c-0.35-0.15-0.65-0.35-0.91-0.61c-0.26-0.26-0.46-0.56-0.61-0.91
			c-0.15-0.35-0.22-0.71-0.22-1.1V16.64c0-0.39,0.07-0.75,0.22-1.1c0.15-0.35,0.35-0.65,0.61-0.9c0.26-0.25,0.56-0.46,0.91-0.61
			c0.35-0.15,0.71-0.23,1.1-0.23h11.32c0.39,0,0.75,0.08,1.1,0.23c0.35,0.15,0.65,0.35,0.91,0.61c0.26,0.25,0.46,0.55,0.61,0.9
			c0.15,0.35,0.22,0.71,0.22,1.1V30.79z M66.39,16.64v14.15h11.32V16.64H66.39z"/>
		<path class="st0" d="M88.46,33.62h-2.83V13.8h2.83l11.91,15.37V13.8h2.83v19.82h-2.83L88.46,18.25V33.62z"/>
		<path class="st0" d="M108.3,33.62V13.8h10.08c1.06,0,2.02,0.16,2.87,0.49s1.58,0.79,2.18,1.4c0.6,0.6,1.07,1.33,1.4,2.19
			s0.49,1.81,0.49,2.86v5.94c0,1.05-0.16,2-0.49,2.86s-0.79,1.59-1.4,2.19c-0.6,0.6-1.33,1.07-2.18,1.4s-1.81,0.49-2.87,0.49H108.3z
			 M118.37,30.79c1.32,0,2.33-0.35,3.04-1.06c0.71-0.71,1.06-1.72,1.06-3.04v-5.94c0-0.65-0.09-1.22-0.28-1.73
			c-0.18-0.51-0.45-0.94-0.81-1.29c-0.35-0.35-0.79-0.62-1.29-0.81c-0.51-0.18-1.08-0.28-1.73-0.28h-7.24v14.15H118.37z"/>
		<path class="st0" d="M129.84,13.8h2.83v16.99H144V13.8h2.83v16.99c0,0.39-0.07,0.75-0.22,1.1c-0.15,0.35-0.35,0.65-0.61,0.91
			c-0.26,0.26-0.56,0.46-0.91,0.61c-0.35,0.15-0.71,0.22-1.1,0.22h-11.32c-0.39,0-0.75-0.07-1.1-0.22s-0.65-0.35-0.91-0.61
			s-0.46-0.56-0.61-0.91c-0.15-0.35-0.22-0.71-0.22-1.1V13.8z"/>
		<path class="st0" d="M151.92,16.64c0-0.39,0.07-0.75,0.22-1.1c0.15-0.35,0.35-0.65,0.61-0.9c0.26-0.25,0.56-0.46,0.91-0.61
			c0.35-0.15,0.71-0.23,1.1-0.23h10.75c0.39,0,0.75,0.08,1.1,0.23c0.35,0.15,0.65,0.35,0.91,0.61c0.26,0.25,0.46,0.55,0.61,0.9
			c0.15,0.35,0.22,0.71,0.22,1.1v2.56h-2.83v-2.56h-10.75v14.15h10.75v-2.54h2.83v2.54c0,0.39-0.07,0.75-0.22,1.1
			c-0.15,0.35-0.35,0.65-0.61,0.91c-0.26,0.26-0.56,0.46-0.91,0.61c-0.35,0.15-0.71,0.22-1.1,0.22h-10.75
			c-0.39,0-0.75-0.07-1.1-0.22s-0.65-0.35-0.91-0.61s-0.46-0.56-0.61-0.91c-0.15-0.35-0.22-0.71-0.22-1.1V16.64z"/>
		<path class="st0" d="M171.17,13.8h15.85v2.83h-6.51v16.99h-2.83V16.64h-6.51V13.8z"/>
		<path class="st0" d="M193.26,13.8v19.82h-2.83V13.8H193.26z"/>
		<path class="st0" d="M215.33,30.79c0,0.39-0.07,0.75-0.22,1.1c-0.15,0.35-0.35,0.65-0.61,0.91c-0.26,0.26-0.56,0.46-0.91,0.61
			c-0.35,0.15-0.71,0.22-1.1,0.22h-11.32c-0.39,0-0.75-0.07-1.1-0.22s-0.65-0.35-0.91-0.61s-0.46-0.56-0.61-0.91
			c-0.15-0.35-0.22-0.71-0.22-1.1V16.64c0-0.39,0.07-0.75,0.22-1.1c0.15-0.35,0.35-0.65,0.61-0.9c0.26-0.25,0.56-0.46,0.91-0.61
			c0.35-0.15,0.71-0.23,1.1-0.23h11.32c0.39,0,0.75,0.08,1.1,0.23c0.35,0.15,0.65,0.35,0.91,0.61c0.26,0.25,0.46,0.55,0.61,0.9
			c0.15,0.35,0.22,0.71,0.22,1.1V30.79z M201.18,16.64v14.15h11.32V16.64H201.18z"/>
		<path class="st0" d="M223.25,33.62h-2.83V13.8h2.83l11.91,15.37V13.8H238v19.82h-2.83l-11.91-15.37V33.62z"/>
	</g>
</g>
</svg>
