<?xml version="1.0" standalone="no"?>
<!DOCTYPE svg PUBLIC "-//W3C//DTD SVG 20010904//EN"
 "http://www.w3.org/TR/2001/REC-SVG-20010904/DTD/svg10.dtd">
<svg version="1.0" xmlns="http://www.w3.org/2000/svg"
 width="260.000000pt" height="260.000000pt" viewBox="0 0 260.000000 260.000000"
 preserveAspectRatio="xMidYMid meet">
<metadata>
Created by potrace 1.14, written by Peter Selinger 2001-2017
</metadata>
<g transform="translate(0.000000,260.000000) scale(0.100000,-0.100000)"
fill="#000000" stroke="none">
<path d="M2045 2078 c-198 -29 -317 -161 -332 -368 -3 -41 -7 -77 -10 -80 -8
-9 -288 -6 -294 3 -9 12 9 87 27 114 23 37 58 54 125 61 l63 7 -1 100 c-2 172
9 152 -80 149 -129 -6 -225 -45 -300 -122 -56 -58 -86 -135 -98 -256 -3 -26
-7 -51 -9 -55 -3 -4 -36 -7 -74 -6 l-69 1 -1 -128 0 -128 74 0 74 0 0 -385 0
-385 133 0 132 0 0 373 c-1 204 1 378 3 385 3 9 43 12 153 12 l149 0 0 -385 0
-386 132 3 132 3 -1 383 0 382 109 0 108 0 0 128 0 128 -107 0 -108 -1 -1 25
c0 41 15 100 34 126 22 31 81 54 137 54 l45 0 0 128 0 127 -47 1 c-27 0 -70
-4 -98 -8z"/>
<path d="M521 2030 c-15 -10 -4 -490 14 -610 2 -14 9 -77 15 -140 6 -64 13
-129 15 -145 2 -17 4 -36 4 -42 1 -9 29 -13 105 -12 l104 0 7 57 c3 31 8 75
10 97 6 80 17 190 21 210 17 85 24 584 9 586 -35 4 -297 4 -304 -1z"/>
<path d="M595 900 c-114 -57 -124 -224 -17 -295 164 -108 355 98 230 249 -55
67 -137 84 -213 46z"/>
</g>
</svg>
