<?xml version="1.0" standalone="no"?>
<!DOCTYPE svg PUBLIC "-//W3C//DTD SVG 20010904//EN"
 "http://www.w3.org/TR/2001/REC-SVG-20010904/DTD/svg10.dtd">
<svg version="1.0" xmlns="http://www.w3.org/2000/svg"
 width="700.000000pt" height="700.000000pt" viewBox="0 0 700.000000 700.000000"
 preserveAspectRatio="xMidYMid meet">
<metadata>
Created by potrace 1.14, written by Peter Selinger 2001-2017
</metadata>
<g transform="translate(0.000000,700.000000) scale(0.100000,-0.100000)"
fill="#000000" stroke="none">
<path d="M1090 6985 c-278 -44 -511 -163 -711 -364 -157 -157 -246 -301 -314
-504 -68 -206 -65 -66 -65 -2617 0 -2549 -4 -2407 65 -2615 66 -203 156 -348
314 -506 158 -159 334 -265 536 -324 198 -57 81 -55 2584 -55 2552 0 2412 -3
2618 65 203 68 347 157 504 314 204 203 321 435 364 721 22 142 22 4658 0
4800 -43 287 -158 515 -364 721 -157 157 -300 246 -504 314 -207 69 -64 65
-2628 64 -1885 -1 -2330 -3 -2399 -14z m1670 -2217 l0 -323 -88 -1 c-194 -2
-307 -90 -320 -251 l-5 -63 207 0 206 0 0 -325 0 -325 -205 0 -205 0 0 -795 0
-795 -340 0 -340 0 0 795 0 794 -147 3 -148 3 -3 323 -2 322 150 0 c141 0 150
1 150 19 0 68 25 241 46 321 64 246 204 419 422 522 143 68 281 95 490 97
l132 1 0 -322z m1500 0 l0 -323 -88 -1 c-110 -1 -181 -24 -238 -76 -50 -46
-84 -125 -84 -193 l0 -45 205 0 205 0 0 -325 0 -325 -205 0 -205 0 0 -795 0
-795 -340 0 -340 0 0 795 0 794 -147 3 -148 3 -3 323 -2 322 150 0 c113 0 150
3 150 13 0 63 25 244 44 319 88 348 337 561 721 617 33 5 120 9 193 10 l132 1
0 -322z m1030 -200 l0 -453 -65 -539 c-36 -297 -65 -545 -65 -553 0 -10 -50
-13 -270 -13 -220 0 -270 3 -270 13 0 8 -29 256 -65 553 l-65 539 0 453 0 452
400 0 400 0 0 -452z m-267 -1914 c107 -35 207 -127 259 -239 19 -42 22 -67 23
-160 0 -103 -2 -114 -31 -175 -161 -335 -613 -332 -771 6 -25 53 -28 70 -28
169 0 104 2 114 32 176 95 194 312 288 516 223z"/>
</g>
</svg>
