<svg xmlns="http://www.w3.org/2000/svg" viewBox="0 0 264.24 55.23"><defs><style>.a{fill:#1e1e1e;}.b{fill:#fff;}</style></defs><path class="a" d="M36.62,10.26,29,34.15H22.29L18.46,21.39,14.64,34.15H8L.31,10.26H8l3.44,12.81,3.73-12.81h6.69l3.73,12.81L29,10.26Z"/><path class="a" d="M50.72,28.42A6.23,6.23,0,0,0,55.3,26.6L61,29.9c-2.34,3.25-5.87,4.92-10.41,4.92-8.17,0-13.23-5.5-13.23-12.61A12.25,12.25,0,0,1,50.09,9.59c7,0,12.14,5.4,12.14,12.62a13.94,13.94,0,0,1-.29,2.86H45C45.89,27.56,48.09,28.42,50.72,28.42Zm4.39-8.7A4.91,4.91,0,0,0,50.05,16a4.93,4.93,0,0,0-5.21,3.77Z"/><path class="b" d="M90.51,10.26V34.15H83.35V31.9a9,9,0,0,1-7.12,2.92c-6.26,0-11.42-5.5-11.42-12.61S70,9.59,76.23,9.59a9,9,0,0,1,7.12,2.92V10.26Zm-7.16,12a5.69,5.69,0,1,0-11.37,0,5.69,5.69,0,1,0,11.37,0Z"/><path class="b" d="M110.1,9.78v8.13c-3-.48-7.16.71-7.16,5.44v10.8H95.77V10.26h7.17v4.25C103.89,11.31,107.09,9.78,110.1,9.78Z"/><path class="b" d="M124.87,28.42a6.22,6.22,0,0,0,4.58-1.82l5.74,3.3c-2.34,3.25-5.88,4.92-10.42,4.92-8.17,0-13.23-5.5-13.23-12.61A12.25,12.25,0,0,1,124.25,9.59c7,0,12.13,5.4,12.13,12.62a13.94,13.94,0,0,1-.28,2.86h-17C120,27.56,122.24,28.42,124.87,28.42Zm4.39-8.7a5.38,5.38,0,0,0-10.27,0Z"/><path class="a" d="M148.42,10.26h4.45v6.88h-4.45v17h-7.16v-17h-3.2V10.26h3.2c0-6.69,3.68-10.7,11.61-10.22V6.92C150.19,6.68,148.42,7.49,148.42,10.26Z"/><path class="a" d="M169.83,9.78v8.13c-3-.48-7.17.71-7.17,5.44v10.8H155.5V10.26h7.16v4.25C163.62,11.31,166.82,9.78,169.83,9.78Z"/><path class="a" d="M197,10.26V34.15H189.8V31.9a9,9,0,0,1-7.12,2.92c-6.26,0-11.42-5.5-11.42-12.61s5.16-12.62,11.42-12.62a9,9,0,0,1,7.12,2.92V10.26Zm-7.16,12a5.69,5.69,0,1,0-11.37,0,5.69,5.69,0,1,0,11.37,0Z"/><path class="a" d="M225.15,19.48V34.15H218V20.53c0-3-1.87-4.34-4.16-4.34-2.63,0-4.44,1.53-4.44,4.92v13h-7.17V10.26h7.17v2.25c1.29-1.77,3.68-2.92,6.83-2.92C221.05,9.59,225.15,13,225.15,19.48Z"/><path class="a" d="M244.89,34.15l-7.65-10.56V34.15h-7.16V.71h7.16v20l7.17-10.46h8.36l-8.69,12L253,34.15Z"/><path class="b" d="M255.16,30.28a4.54,4.54,0,1,1,4.54,4.54A4.58,4.58,0,0,1,255.16,30.28Zm.24-20V.71H264v9.55l-1.43,12h-5.73Z"/><path class="a" d="M0,47.85a4.15,4.15,0,0,1,4.21-4.18,4.18,4.18,0,1,1,0,8.35A4.14,4.14,0,0,1,0,47.85Zm7.59,0a3.36,3.36,0,0,0-3.38-3.41,3.41,3.41,0,0,0,0,6.82A3.36,3.36,0,0,0,7.59,47.85Z"/><path class="a" d="M18.93,47.85A4.12,4.12,0,0,1,14.79,52a3.8,3.8,0,0,1-3.45-2v5.06h-.8V43.84h.8V45.7a3.8,3.8,0,0,1,3.45-2A4.13,4.13,0,0,1,18.93,47.85Zm-.8,0a3.4,3.4,0,1,0-3.39,3.41A3.37,3.37,0,0,0,18.13,47.85Z"/><path class="a" d="M28.64,47.88c0,.13,0,.25,0,.38H21.38a3.25,3.25,0,0,0,3.39,3,3.06,3.06,0,0,0,2.77-1.46l.7.42A3.94,3.94,0,0,1,24.75,52a4.18,4.18,0,1,1,3.89-4.14Zm-7.26-.4h6.43a3.11,3.11,0,0,0-3.12-3A3.22,3.22,0,0,0,21.38,47.48Z"/><path class="a" d="M37.51,46.87v5h-.82v-5a2.21,2.21,0,0,0-2.35-2.43c-1.57,0-2.8,1-2.8,3.18v4.23h-.8v-8h.8v1.53a3,3,0,0,1,2.86-1.7A3,3,0,0,1,37.51,46.87Z"/><path class="a" d="M49.89,49.75C49.89,51.06,48.74,52,47,52a3,3,0,0,1-3-1.77l.69-.4A2.29,2.29,0,0,0,47,51.26c1.13,0,2.07-.5,2.07-1.51,0-2.18-4.85-.93-4.85-3.81A2.44,2.44,0,0,1,47,43.67a2.81,2.81,0,0,1,2.72,1.6l-.67.38a2.09,2.09,0,0,0-2-1.21c-1,0-1.92.54-1.92,1.5C45,48.09,49.89,46.82,49.89,49.75Z"/><path class="a" d="M51.28,47.85A4.2,4.2,0,1,1,55.49,52,4.15,4.15,0,0,1,51.28,47.85Zm7.59,0a3.39,3.39,0,1,0-3.38,3.41A3.36,3.36,0,0,0,58.87,47.85Z"/><path class="a" d="M68.39,43.84v8h-.8V50.33A3,3,0,0,1,64.72,52a3,3,0,0,1-3.1-3.2v-5h.81v5a2.21,2.21,0,0,0,2.35,2.44c1.57,0,2.81-1,2.81-3.19V43.84Z"/><path class="a" d="M74.54,43.73v.77a2.59,2.59,0,0,0-2.67,2.9v4.45h-.8v-8h.8v1.57A2.71,2.71,0,0,1,74.54,43.73Z"/><path class="a" d="M75.38,47.85a4.1,4.1,0,0,1,4.2-4.18,3.74,3.74,0,0,1,3.49,2l-.65.38a3,3,0,0,0-2.84-1.66,3.41,3.41,0,0,0,0,6.82,3.22,3.22,0,0,0,2.89-1.67l.67.4a3.94,3.94,0,0,1-3.56,2A4.09,4.09,0,0,1,75.38,47.85Z"/><path class="a" d="M92.67,47.88c0,.13,0,.25,0,.38H85.41a3.26,3.26,0,0,0,3.39,3,3.06,3.06,0,0,0,2.77-1.46l.7.42A3.94,3.94,0,0,1,88.78,52a4.18,4.18,0,1,1,3.89-4.14Zm-7.26-.4h6.43a3.1,3.1,0,0,0-3.12-3A3.22,3.22,0,0,0,85.41,47.48Z"/><path class="a" d="M99,41.27a.64.64,0,1,1,.64.64A.64.64,0,0,1,99,41.27Zm.24,2.57h.8v8h-.8Z"/><path class="a" d="M109.54,46.87v5h-.82v-5a2.21,2.21,0,0,0-2.35-2.43c-1.57,0-2.8,1-2.8,3.18v4.23h-.8v-8h.8v1.53a3,3,0,0,1,2.86-1.7A3,3,0,0,1,109.54,46.87Z"/><path class="a" d="M113.73,44.63v5.2c0,1.41.75,1.44,2.38,1.3v.72c-2.09.32-3.2-.19-3.2-2v-5.2h-1.76v-.79h1.76v-2l.82-.24v2.24h2.38v.79Z"/><path class="a" d="M125.36,47.88c0,.13,0,.25,0,.38h-7.26a3.27,3.27,0,0,0,3.4,3,3.06,3.06,0,0,0,2.77-1.46l.7.42a4,4,0,0,1-3.49,1.8,4.18,4.18,0,1,1,3.89-4.14Zm-7.27-.4h6.44a3.11,3.11,0,0,0-3.12-3A3.23,3.23,0,0,0,118.09,47.48Z"/><path class="a" d="M135.36,43.84v7.62a3.69,3.69,0,0,1-4,3.77,3.93,3.93,0,0,1-3.78-1.93l.7-.4a3.09,3.09,0,0,0,3.08,1.56,2.86,2.86,0,0,0,3.18-3V50a3.8,3.8,0,0,1-3.44,2,4.18,4.18,0,0,1,0-8.35,3.8,3.8,0,0,1,3.44,2V43.84Zm-.8,4a3.4,3.4,0,1,0-3.39,3.41A3.37,3.37,0,0,0,134.56,47.85Z"/><path class="a" d="M141.52,43.73v.77a2.59,2.59,0,0,0-2.67,2.9v4.45h-.8v-8h.8v1.57A2.69,2.69,0,0,1,141.52,43.73Z"/><path class="a" d="M150.77,43.84v8H150V50a3.84,3.84,0,0,1-3.44,2,4.18,4.18,0,0,1,0-8.35,3.84,3.84,0,0,1,3.44,2V43.84Zm-.82,4a3.39,3.39,0,1,0-3.37,3.41A3.35,3.35,0,0,0,150,47.85Z"/><path class="a" d="M155.17,44.63v5.2c0,1.41.75,1.44,2.38,1.3v.72c-2.1.32-3.2-.19-3.2-2v-5.2h-1.76v-.79h1.76v-2l.82-.24v2.24h2.38v.79Z"/><path class="a" d="M159.45,41.27a.64.64,0,0,1,.64-.63.64.64,0,1,1,0,1.27A.64.64,0,0,1,159.45,41.27Zm.24,2.57h.8v8h-.8Z"/><path class="a" d="M162.64,47.85A4.2,4.2,0,1,1,166.85,52,4.15,4.15,0,0,1,162.64,47.85Zm7.58,0a3.39,3.39,0,1,0-3.37,3.41A3.35,3.35,0,0,0,170.22,47.85Z"/><path class="a" d="M180,46.87v5h-.81v-5a2.21,2.21,0,0,0-2.36-2.43c-1.57,0-2.8,1-2.8,3.18v4.23h-.8v-8h.8v1.53a3,3,0,0,1,2.87-1.7A3,3,0,0,1,180,46.87Z"/><path class="a" d="M192.34,49.75c0,1.31-1.16,2.27-2.87,2.27a3,3,0,0,1-3-1.77l.69-.4a2.29,2.29,0,0,0,2.35,1.41c1.12,0,2.07-.5,2.07-1.51,0-2.18-4.85-.93-4.85-3.81a2.44,2.44,0,0,1,2.72-2.27,2.82,2.82,0,0,1,2.72,1.6l-.67.38a2.09,2.09,0,0,0-2.05-1.21c-1,0-1.92.54-1.92,1.5C187.49,48.09,192.34,46.82,192.34,49.75Z"/><path class="a" d="M202.88,47.85A4.12,4.12,0,0,1,198.73,52a3.8,3.8,0,0,1-3.44-2v5.06h-.8V43.84h.8V45.7a3.8,3.8,0,0,1,3.44-2A4.13,4.13,0,0,1,202.88,47.85Zm-.8,0a3.4,3.4,0,1,0-3.39,3.41A3.37,3.37,0,0,0,202.08,47.85Z"/><path class="a" d="M212.59,47.88c0,.13,0,.25,0,.38h-7.25a3.25,3.25,0,0,0,3.39,3,3.06,3.06,0,0,0,2.77-1.46l.7.42A3.94,3.94,0,0,1,208.7,52a4.18,4.18,0,1,1,3.89-4.14Zm-7.26-.4h6.43a3.11,3.11,0,0,0-3.12-3A3.22,3.22,0,0,0,205.33,47.48Z"/><path class="a" d="M214.14,47.85a4.1,4.1,0,0,1,4.21-4.18,3.75,3.75,0,0,1,3.49,2l-.66.38a3,3,0,0,0-2.83-1.66,3.41,3.41,0,0,0,0,6.82,3.2,3.2,0,0,0,2.88-1.67l.67.4a3.93,3.93,0,0,1-3.55,2A4.09,4.09,0,0,1,214.14,47.85Z"/><path class="a" d="M223.64,41.27a.65.65,0,1,1,.65.64A.64.64,0,0,1,223.64,41.27Zm.24,2.57h.81v8h-.81Z"/><path class="a" d="M235.23,43.84v8h-.81V50A3.86,3.86,0,0,1,231,52a4.18,4.18,0,0,1,0-8.35,3.86,3.86,0,0,1,3.45,2V43.84Zm-.81,4A3.39,3.39,0,1,0,231,51.26,3.36,3.36,0,0,0,234.42,47.85Z"/><path class="a" d="M237.92,40.16h.8V51.85h-.8Z"/><path class="a" d="M241.16,41.27a.64.64,0,0,1,.64-.63.64.64,0,1,1,0,1.27A.64.64,0,0,1,241.16,41.27Zm.24,2.57h.8v8h-.8Z"/><path class="a" d="M250.29,49.75c0,1.31-1.16,2.27-2.87,2.27a3,3,0,0,1-3-1.77l.69-.4a2.29,2.29,0,0,0,2.35,1.41c1.12,0,2.07-.5,2.07-1.51,0-2.18-4.85-.93-4.85-3.81a2.44,2.44,0,0,1,2.72-2.27,2.82,2.82,0,0,1,2.72,1.6l-.67.38a2.09,2.09,0,0,0-2-1.21c-1,0-1.92.54-1.92,1.5C245.44,48.09,250.29,46.82,250.29,49.75Z"/><path class="a" d="M253.85,44.63v5.2c0,1.41.75,1.44,2.39,1.3v.72c-2.1.32-3.2-.19-3.2-2v-5.2h-1.76v-.79H253v-2l.81-.24v2.24h2.39v.79Z"/><path class="a" d="M263.33,49.75c0,1.31-1.16,2.27-2.87,2.27a3,3,0,0,1-3-1.77l.69-.4a2.29,2.29,0,0,0,2.35,1.41c1.12,0,2.07-.5,2.07-1.51,0-2.18-4.85-.93-4.85-3.81a2.44,2.44,0,0,1,2.72-2.27,2.82,2.82,0,0,1,2.72,1.6l-.67.38a2.09,2.09,0,0,0-2.05-1.21c-1,0-1.92.54-1.92,1.5C258.48,48.09,263.33,46.82,263.33,49.75Z"/></svg>