<svg id="Layer_1" data-name="Layer 1" xmlns="http://www.w3.org/2000/svg" viewBox="0 0 59.62 66.02"><defs><style>.cls-1,.cls-5,.cls-6{fill:#fdc200;}.cls-1,.cls-3,.cls-6{fill-rule:evenodd;}.cls-2,.cls-3,.cls-4{fill:none;}.cls-2,.cls-3,.cls-4,.cls-5,.cls-6{stroke:#101010;stroke-linecap:round;stroke-linejoin:round;}.cls-2{stroke-width:1.23px;}.cls-3,.cls-4,.cls-5,.cls-6{stroke-width:1.2px;}</style></defs><path class="cls-1" d="M149.3,132.87a24.64,24.64,0,0,0-20.32.28C134.35,124.59,143.69,125.62,149.3,132.87Z" transform="translate(-109.32 -118.3)"/><path class="cls-1" d="M152.37,135.09l3.83,3.62c-11.6,7-23,7-34.28,0,5-.81,9.66-1.05,11.56-4.67C139.59,137.88,145.66,136.85,152.37,135.09Z" transform="translate(-109.32 -118.3)"/><path class="cls-1" d="M160.93,168.24c-3.79,9.12-12.13,15.46-21.81,15.46-13.25,0-24-11.87-24-26.51q0-.93.06-1.83a53.42,53.42,0,0,1,16.19,18.38C137.52,163.65,151,165.61,160.93,168.24Z" transform="translate(-109.32 -118.3)"/><ellipse class="cls-2" cx="29.79" cy="38.89" rx="23.99" ry="26.51"/><path class="cls-3" d="M128.63,133.34c3-10.66,17-10.72,20.81-.08" transform="translate(-109.32 -118.3)"/><path class="cls-3" d="M128.29,118.9c-.22,4,1.23,6.78,4.24,8.48" transform="translate(-109.32 -118.3)"/><path class="cls-3" d="M149.39,118.9c.23,4-1.23,6.78-4.23,8.48" transform="translate(-109.32 -118.3)"/><path class="cls-3" d="M117.35,146c-4.54-2.51-6.17-6.55-5.64-11.74" transform="translate(-109.32 -118.3)"/><path class="cls-3" d="M160.89,146c4.54-2.51,6.17-6.55,5.64-11.74" transform="translate(-109.32 -118.3)"/><path class="cls-3" d="M161.33,167.29c4.27-.15,7.08,3.82,7,9.31" transform="translate(-109.32 -118.3)"/><path class="cls-3" d="M116.93,167.29c-4.27-.15-7.08,3.82-7,9.31" transform="translate(-109.32 -118.3)"/><path class="cls-3" d="M123,152.1a2.68,2.68,0,1,0-2.67-2.68A2.69,2.69,0,0,0,123,152.1Z" transform="translate(-109.32 -118.3)"/><circle class="cls-4" cx="18.99" cy="52.44" r="2.67"/><circle class="cls-5" cx="21.58" cy="41.41" r="2.67"/><path class="cls-6" d="M147,154.19a2.68,2.68,0,1,0-2.68-2.68A2.68,2.68,0,0,0,147,154.19Z" transform="translate(-109.32 -118.3)"/><circle class="cls-4" cx="40.3" cy="52.1" r="2.67"/><circle class="cls-4" cx="45.57" cy="41.57" r="2.67"/><path class="cls-3" d="M156.2,138.71c-11.6,7-23,7-34.28,0" transform="translate(-109.32 -118.3)"/><line class="cls-4" x1="29.79" y1="25.68" x2="29.79" y2="65.4"/></svg>