<svg id="Layer_1" data-name="Layer 1" xmlns="http://www.w3.org/2000/svg" viewBox="0 0 61.76 49.3"><defs><style>.cls-1{fill:#fdc200;}.cls-1,.cls-2,.cls-4,.cls-5{fill-rule:evenodd;}.cls-2,.cls-3,.cls-4,.cls-5{fill:none;stroke-linecap:round;stroke-linejoin:round;}.cls-2,.cls-3{stroke:#101010;stroke-width:1.2px;}.cls-4,.cls-5{stroke:#fdc200;}.cls-4{stroke-width:1.32px;}.cls-5{stroke-width:1.32px;}</style></defs><path class="cls-1" d="M112.64,131.65c-2-2.52-.78-4,3.46-4.4h45.07c4.54.6,5.39,2.43,3.27,5.26l-19.9,19.24c-3.42,3.16-7,3.83-10.94,0Z" transform="translate(-111.04 -126.65)"/><path class="cls-2" d="M115.06,127.25h47.23a3.43,3.43,0,0,1,3.42,3.43v26.49c-.23,0-.46,0-.69,0a10.78,10.78,0,0,0-10.78,10.39H115.06a3.43,3.43,0,0,1-3.42-3.42V130.68A3.43,3.43,0,0,1,115.06,127.25Z" transform="translate(-111.04 -126.65)"/><path class="cls-2" d="M111.64,130.68l22,21.41c3.7,3,7.17,3,10.59,0l21.52-20.81" transform="translate(-111.04 -126.65)"/><line class="cls-3" x1="17.53" y1="20.53" x2="0.6" y2="37.46"/><line class="cls-3" x1="37.99" y1="20.75" x2="48.97" y2="31.73"/><path class="cls-4" d="M157.94,166.2a7.32,7.32,0,0,1,7.08-5.51,7.92,7.92,0,0,1,7.08,5.16" transform="translate(-111.04 -126.65)"/><path class="cls-4" d="M172.13,169.64a7.28,7.28,0,0,1-7.11,5.65,7.75,7.75,0,0,1-7.09-5.31" transform="translate(-111.04 -126.65)"/><polyline class="cls-5" points="46.79 47.25 46.88 43.32 50.38 45.32"/><polyline class="cls-4" points="57.45 37.21 61.07 39.2 61.09 35.36"/></svg>