<svg id="Layer_1" data-name="Layer 1" xmlns="http://www.w3.org/2000/svg" viewBox="0 0 60.08 64.2"><defs><style>.cls-1,.cls-2,.cls-4{fill:none;}.cls-1,.cls-2,.cls-3,.cls-4{stroke:#101010;stroke-linecap:round;stroke-linejoin:round;}.cls-1{stroke-width:1.2px;}.cls-1,.cls-2,.cls-6{fill-rule:evenodd;}.cls-2,.cls-3,.cls-4{stroke-width:1.2px;}.cls-3,.cls-5,.cls-6{fill:#fdc200;}</style></defs><polyline class="cls-1" points="41.42 18.94 41.42 63.6 0.6 63.6 0.6 13.77 7.09 13.77"/><polyline class="cls-2" points="16.98 26.56 36.06 26.56 36.06 31.79 16.98 31.79 16.98 26.56"/><rect class="cls-3" x="6.89" y="26.56" width="5.3" height="5.23"/><rect class="cls-4" x="16.98" y="37.29" width="19.08" height="5.23"/><rect class="cls-4" x="6.89" y="37.29" width="5.3" height="5.23"/><rect class="cls-4" x="16.98" y="48.03" width="19.08" height="5.23"/><rect class="cls-3" x="6.89" y="48.03" width="5.3" height="5.23"/><rect class="cls-5" x="10.31" y="9.99" width="21.4" height="8.07" rx="2.85"/><path class="cls-2" d="M192.42,133.72h15.17a3.22,3.22,0,0,1,3.22,3.21v7.62a3.23,3.23,0,0,1-3.22,3.22H196.37l-5.24,3.37.82-3.41a3.23,3.23,0,0,1-2.75-3.18v-7.62A3.22,3.22,0,0,1,192.42,133.72Z" transform="translate(-155.18 -133.12)"/><path class="cls-6" d="M197,149.84a2.78,2.78,0,0,0,2.68,2.35h9.5l4.44,3-.7-3a2.83,2.83,0,0,0,2.33-2.82v-6.75a2.8,2.8,0,0,0-2.59-2.84v6.34a3.77,3.77,0,0,1-3.76,3.75Z" transform="translate(-155.18 -133.12)"/><path class="cls-6" d="M194.59,142.39a1.89,1.89,0,1,0-1.89-1.88A1.88,1.88,0,0,0,194.59,142.39Z" transform="translate(-155.18 -133.12)"/><path class="cls-6" d="M200,142.39a1.89,1.89,0,1,0-1.88-1.88A1.89,1.89,0,0,0,200,142.39Z" transform="translate(-155.18 -133.12)"/><path class="cls-6" d="M205.41,142.39a1.89,1.89,0,1,0-1.88-1.88A1.88,1.88,0,0,0,205.41,142.39Z" transform="translate(-155.18 -133.12)"/></svg>