<svg id="Layer_1" data-name="Layer 1" xmlns="http://www.w3.org/2000/svg" viewBox="0 0 71.55 53.99"><defs><style>.cls-1,.cls-5{fill:#fdc200;}.cls-2,.cls-3,.cls-4{fill:none;stroke:#101010;stroke-linecap:round;stroke-linejoin:round;}.cls-2,.cls-4{stroke-width:1.2px;}.cls-3{stroke-width:1.2px;}.cls-4,.cls-5{fill-rule:evenodd;}</style></defs><rect class="cls-1" x="31.91" y="31.26" width="8.08" height="22.14"/><rect class="cls-1" x="6.84" y="47.78" width="8.08" height="5.62"/><rect class="cls-1" x="44.27" y="22.36" width="5.9" height="31.03"/><line class="cls-2" x1="0.6" y1="53.39" x2="70.95" y2="53.39"/><rect class="cls-3" x="6.73" y="33.4" width="8.3" height="19.99"/><rect class="cls-2" x="19.26" y="23.96" width="8.3" height="29.44"/><rect class="cls-2" x="31.8" y="31.26" width="8.3" height="22.14"/><polyline class="cls-4" points="52.63 19 44.33 19 44.33 53.39 52.63 53.39 52.63 19"/><rect class="cls-2" x="56.86" y="14.55" width="8.3" height="38.85"/><path class="cls-4" d="M135.6,160.07l8.12-6.65m5.06-.36,7.25,4.37m4.88-.57L169,149m5.12-3.25,6.83-2.53" transform="translate(-122.49 -138.22)"/><path class="cls-4" d="M146.12,154.56a3.11,3.11,0,1,0-3.1-3.1A3.1,3.1,0,0,0,146.12,154.56Z" transform="translate(-122.49 -138.22)"/><path class="cls-5" d="M158.69,162.57a3.54,3.54,0,1,0-3.54-3.54A3.55,3.55,0,0,0,158.69,162.57Z" transform="translate(-122.49 -138.22)"/><path class="cls-4" d="M171.18,149.88a3.11,3.11,0,1,0-3.1-3.11A3.12,3.12,0,0,0,171.18,149.88Z" transform="translate(-122.49 -138.22)"/><path class="cls-5" d="M183.83,146a3.87,3.87,0,1,0-3.87-3.87A3.88,3.88,0,0,0,183.83,146Z" transform="translate(-122.49 -138.22)"/><path class="cls-5" d="M133.2,165.58a3.54,3.54,0,1,0-3.54-3.54A3.54,3.54,0,0,0,133.2,165.58Z" transform="translate(-122.49 -138.22)"/></svg>